<svg width="51" height="53" viewBox="0 0 51 53" fill="none" xmlns="http://www.w3.org/2000/svg">
<path d="M40.2079 26.1378L39.9972 26.1108C40.8436 25.5544 41.5315 24.6962 41.5315 23.2119V23.1727C41.5315 22.2247 41.2415 21.4538 40.6616 20.8215C39.9371 20.0314 38.7955 19.5962 37.3464 19.5962H34.4807L31.459 21.9605V33.4443H38.037C41.1579 33.4443 43.2121 32.178 43.2121 29.6454V29.6061C43.2121 27.7477 41.9895 26.3646 40.2079 26.1378ZM34.1759 22.2639H36.9293C38.1067 22.2639 38.7589 22.7776 38.7589 23.6863V23.7256C38.7589 24.7529 37.9795 25.1872 36.7482 25.1872H34.1759V22.2639ZM40.1905 29.2713C40.1905 30.3003 39.3806 30.7748 38.037 30.7748H34.4223V27.7285H37.9386C39.4991 27.7285 40.1905 28.3024 40.1905 29.232V29.2713Z" fill="white"/>
<path d="M8.17969 19.5969H11.2214V25.0772H16.8319V19.5969H19.8736V31.0275L16.8319 33.445V27.8862H11.2214V33.445H8.17969V19.5969Z" fill="white"/>
<path d="M21.6777 19.5969H24.7194V30.6761H30.0174V33.4459H21.6777V19.5969Z" fill="white"/>
<path d="M45.6411 10.8289C40.9675 4.83058 33.6842 0.966309 25.5161 0.966309C11.4466 0.966309 0 12.4301 0 26.5206C0 28.9101 0.330032 31.2238 0.945686 33.4189H4.62132C3.90466 31.2473 3.51541 28.9293 3.51541 26.5206C3.51541 14.3713 13.385 4.48697 25.5161 4.48697C32.5617 4.48697 38.8437 7.82188 42.8728 12.9969C45.7622 16.726 47.4846 21.404 47.4846 26.4787C47.4846 38.6279 37.615 48.5123 25.4839 48.5123C18.4896 48.5123 12.2469 45.2262 8.21423 40.1148L5.4451 42.282C10.1222 48.2166 17.3663 52.0338 25.4839 52.0338C39.5534 52.0338 51 40.5701 51 26.4796C51 20.5877 48.998 15.1562 45.6411 10.8289Z" fill="white"/>
<path d="M4.62095 33.4197H0.945312C0.950537 33.4371 0.954891 33.4546 0.959245 33.4711H4.63749C4.63227 33.4537 4.62704 33.4362 4.62095 33.4197Z" fill="white"/>
<path d="M8.21445 40.1174L5.44531 42.2837C5.45576 42.2977 5.46708 42.3108 5.47753 42.3238L8.24667 40.1567C8.23622 40.1436 8.2249 40.1305 8.21445 40.1174Z" fill="white"/>
</svg>
